<?xml version="1.0" encoding="UTF-8"?>
<svg id="Layer_1" xmlns="http://www.w3.org/2000/svg" version="1.1" viewBox="0 0 24 24">
  <!-- Generator: Adobe Illustrator 29.2.1, SVG Export Plug-In . SVG Version: 2.1.0 Build 116)  -->
  <defs>
    <style>
      .st0 {
        fill: #dd282d;
      }
    </style>
  </defs>
  <path class="st0" d="M12,12c-1.1,0-2-.4-2.8-1.2-.8-.8-1.2-1.7-1.2-2.8s.4-2,1.2-2.8,1.7-1.2,2.8-1.2,2,.4,2.8,1.2,1.2,1.7,1.2,2.8-.4,2-1.2,2.8c-.8.8-1.7,1.2-2.8,1.2ZM4,20v-2.8c0-.6.1-1.1.4-1.6s.7-.8,1.2-1.1c1-.5,2.1-.9,3.2-1.2s2.2-.4,3.3-.4,2.2.1,3.3.4,2.1.6,3.2,1.2c.5.3.9.6,1.2,1.1s.4,1,.4,1.6v2.8H4ZM6,18h12v-.8c0-.2,0-.4-.1-.5s-.2-.3-.4-.4c-.9-.5-1.8-.8-2.7-1s-1.8-.3-2.8-.3-1.9.1-2.8.3-1.8.6-2.7,1c-.2,0-.3.2-.4.4s-.1.3-.1.5v.8ZM12,10c.6,0,1-.2,1.4-.6s.6-.9.6-1.4-.2-1-.6-1.4-.9-.6-1.4-.6-1,.2-1.4.6-.6.9-.6,1.4.2,1,.6,1.4.9.6,1.4.6Z"/>
</svg>