<?xml version="1.0" encoding="UTF-8"?>
<svg id="Layer_1" data-name="Layer 1" xmlns="http://www.w3.org/2000/svg" version="1.1" viewBox="0 0 140 140">
  <defs>
    <style>
      .cls-1 {
        fill: #fb5621;
        stroke-width: 0px;
      }
    </style>
  </defs>
  <path class="cls-1" d="M132.4,54.3c-1.1-1.3-2.4-2.7-3.9-3.5s-.2-.2-.2-.3c-.2-12.4-9.4-24.9-21.9-27-.2,0-.3-.2-.3-.4,0-1.3,0-2.5-.2-3.8-1.3-10.6-10.7-18.9-21.4-18.6-4.7.1-11,2.5-14,6.4-.2.2-.5.2-.6,0-3.9-4.5-9.7-6.8-15.6-6.5-11.7.6-20.7,10.9-20,22.6h0c-11.4,1.7-21.2,13.2-22.2,24.6,0,.9-.2,1.8-.1,2.7s0,.3-.2.4c-5.5,3.7-9.6,11.2-11,17.5-2.6,11.6,2,23.9,11.4,31.1,0,0,.1.2.2.3,1.6,12.6,10.9,21.5,23,24.1.2,0,.3.1.3.3,3.5,11,14.3,17.9,25.7,14.4,3.4-1.1,6.1-3.1,8.5-5.6s.4-.2.6,0c4.8,4.1,8.3,7,15.5,6.4h.1c8.6-.3,17-6.9,18.6-15.4h0c1.8-.2,3.7-.8,5.4-1.5,10-4.1,16.1-11.9,17.8-22.6,0,0,0-.2.1-.2,1.4-1.3,2.8-2.5,4.1-3.9,10.5-11.3,10.6-29.8.3-41.3h0ZM62.9,45.9c.5-.7.9-1.4,1.4-2.1s.8-.2.8.2v38.2c0,4.2,0,8.4,0,12.6,0,.4-.4.5-.7.3-5.2-4.6-9.4-5.2-16.1-5.2h-7.3c-1.7,0-3.4,0-5.1,0s-.5-.3-.4-.6c.6-1,1.3-2,2-3l25.5-40.5h0ZM76.1,95.1c-.3.2-.7,0-.7-.3,0-1.1,0-2.2,0-3.4v-43.1c0-1.5,0-3,0-4.5s.5-.5.8-.2c1.8,2.6,6.2,10,7.1,11.3l21.6,34.4c.2.3,0,.6-.3.6h-12.3c-6.7,0-10.9.6-16.2,5.2h0ZM15.8,67.5c2.1-4.2,5.7-6.4,10-7.9.2,0,.3-.2.3-.4-.3-5-1-9.8,1.2-14.5,3.8-8.2,12.8-9.6,20.5-6.2s.6,0,.6-.4c0-1.3,0-2.5,0-3.8v-8.6c0-4.8-.2-10.6,6.1-11.1h0c3.9.1,5.6,6.2,5.8,12s-.2,2.8-.9,3.9l-35.1,56.6c-.1.2-.4.3-.6.1-7-4.3-11.6-12.4-7.9-19.8h0ZM60.9,109.5c-.9,7.1-11.9,17.1-12.6,7.7s0,0,0,0c.1-2.7,0-5.5,0-8.3s-.3-.5-.5-.4c-.6.2-1.2.4-1.9.6-5.8,1.8-11.9.3-16.1-4.2-1.3-1.4-1.9-2.7-2.1-4.1s.2-.5.4-.5h17.8c7.9,0,9.9-.5,14.9,6.4h0c.1.2.2.4.2.6,0,.7,0,1.5,0,2.2h0ZM95.7,109.4c-1.1-.3-2.1-.7-3.1-1-.3,0-.5,0-.5.3-.3,2.5,0,5.1,0,7.6,0,10.2-11.4.5-12.6-6.4-.1-.7-.2-1.4-.2-2.1s0-.5.2-.6c1.3-1.9,2.6-3.8,4.2-5,2.4-1.8,5-1.9,7.9-1.9h18.4c.8,0,1.7,0,2.8,0s.5.3.4.6c-3,6.5-10.1,10.2-17.3,8.4h0ZM117.4,88.2h0c-.2,0-.4,0-.5-.2-2.8-4.7-6.6-10.4-7.9-12.5l-28-45.2c-.8-1.2-1.1-2.7-.9-4.1.8-5.8,2.2-11.3,4.8-11.6,3.2-.3,6.1,1.9,6.8,5,.7,3,.8,14.1.2,18.3s.3.5.5.4c.8-.3,1.7-.6,2.5-.9,6.3-2.1,12.9,0,16.7,5.4,3,4.3,3.3,11,2.4,16.1,0,.2,0,.4.3.5,4.7,1.9,8.7,4.7,10.6,9.6,2.9,7.5-.4,15.6-7.5,19.1h0Z"/>
</svg>