<?xml version="1.0" encoding="UTF-8"?>
<svg id="Layer_1" data-name="Layer 1" xmlns="http://www.w3.org/2000/svg" version="1.1" viewBox="0 0 639.5 159">
  <defs>
    <style>
      .cls-1 {
        fill: #303841;
        font-family: Montserrat-Bold, Montserrat;
        font-size: 60px;
        font-weight: 700;
      }

      .cls-1, .cls-2 {
        isolation: isolate;
      }

      .cls-3 {
        fill: #ff5722;
        stroke-width: 0px;
      }
    </style>
  </defs>
  <g class="cls-2">
    <text class="cls-1" transform="translate(160.3 97)"><tspan x="0" y="0">Prompt Central</tspan></text>
  </g>
  <path class="cls-3" d="M151.3,61.7c-1.3-1.4-2.8-3-4.5-4s-.2-.2-.2-.4c-.2-14.1-10.7-28.2-24.8-30.5-.2,0-.4-.2-.4-.4,0-1.4,0-2.9-.2-4.3-1.4-12-12.1-21.4-24.2-21.1-5.3.1-12.5,2.8-15.8,7.3-.2.2-.5.3-.7,0-4.4-5.1-11-7.7-17.7-7.4-13.2.7-23.4,12.4-22.7,25.6h0c-12.9,1.9-24,15-25.1,27.8,0,1-.2,2.1-.1,3.1s0,.3-.2.4c-6.2,4.1-10.8,12.7-12.4,19.8-2.9,13.2,2.3,27.1,12.9,35.2.1,0,.2.2.2.3,1.8,14.3,12.3,24.4,26,27.3.2,0,.3.2.3.3,4,12.5,16.2,20.3,29.1,16.3,3.9-1.2,6.9-3.5,9.7-6.4s.4-.2.6,0c5.4,4.6,9.4,7.9,17.5,7.3h0c9.7-.4,19.2-7.8,21.1-17.5h0c2.1-.2,4.2-.9,6.1-1.7,11.4-4.6,18.2-13.5,20.2-25.6,0,0,0-.2.2-.3,1.6-1.4,3.2-2.8,4.7-4.4,11.8-12.9,12-33.7.3-46.8h0ZM72.6,52.3v-.2c.5-.8,1-1.6,1.5-2.4s.9-.2.9.3v57.6c0,.4-.5.6-.8.4-5.9-5.2-10.6-5.8-18.2-5.8h-14.1c-1.9,0-.6-.4-.4-.7.7-1.1,1.5-2.3,2.2-3.4M87.6,108c-.3.3-.8,0-.8-.4v-57.8c0-1.7.6-.6.9-.3,2.1,2.9,7.1,11.3,8,12.8l24.5,39c.2.3,0,.7-.4.7h-13.9c-7.6,0-12.4.7-18.3,5.9h0ZM19.2,76.7c2.4-4.8,6.4-7.3,11.3-8.9.2,0,.3-.3.3-.5-.3-5.6-1.2-11.2,1.3-16.5,4.3-9.3,13.7-7,23.2-7s.6,0,.6-.4v-14.1c0-5.4-.2-12,6.9-12.6h0c4.4.1,6.3,7,6.6,13.6.3,6.6-.2,3.1-1,4.5L28.8,99c-.1.2-.4.3-.6.2-8-4.9-13.1-14.1-8.9-22.5h0ZM70.3,124.2c-1.1,8.1-13.5,19.4-14.3,8.7s0,0,0,0c0-3.1,0-6.3,0-9.4s-.3-.5-.6-.4c-.7.2-1.4.5-2.1.7-6.6,2.1-13.5.4-18.2-4.7-1.5-1.6-2.1-3.1-2.3-4.7s.2-.5.5-.5h20.2c8.9,0,11.2-.6,16.9,7.2h0c.2.2.2.4.2.7v2.5h-.3ZM109.7,124.1c-1.2-.3-2.3-.7-3.5-1.1-.3,0-.6,0-.6.4-.3,2.8,0,5.7,0,8.6,0,11.6-12.9.5-14.2-7.2,0-.8-.2-1.6-.2-2.4s0-.5.2-.7c1.5-2.2,3-4.3,4.8-5.6,2.7-2.1,5.7-2.1,8.9-2.1h23.9c1.1,0,.6.4.4.7-3.4,7.4-11.4,11.6-19.6,9.5h-.1ZM134.3,100.1h0c-.2,0-.5,0-.6-.2-3.1-5.3-7.5-11.8-9-14.1l-31.7-51.2c-.9-1.4-1.2-3.1-1-4.7.9-6.6,2.5-12.8,5.5-13.1,3.6-.3,6.9,2.1,7.7,5.7.8,3.4.3,15.9.3,20.7s.3.5.6.5c1-.3,1.9-.7,2.8-1,7.1-2.4,14.6,0,18.9,6.1,3.4,4.9,3.7,12.4,2.7,18.3,0,.2,0,.4.3.5,5.4,2.1,9.8,5.3,12,10.9,3.3,8.5-.4,17.6-8.5,21.6h0Z"/>
</svg>