<?xml version="1.0" encoding="UTF-8"?>
<svg id="Layer_1" data-name="Layer 1" xmlns="http://www.w3.org/2000/svg" version="1.1" viewBox="0 0 1024 1024">
  <defs>
    <style>
      .cls-1 {
        fill: #ff5722;
        stroke-width: 0px;
      }
    </style>
  </defs>
  <path class="cls-1" d="M956.3,395.8c-15-15.8-26.6-28.5-31.2-50.3-11.6-76.4-63.2-143.8-136.4-168.1-13.6-6-20.6-15.9-23.4-30.6-13.1-111.2-135.4-175.7-230.8-111.9-15.1,10.5-26,17.2-43,6.3-91.6-70.6-218.5-16.3-238.7,95.4-1.8,10.1-4,22-10.2,29.3-5.7,7.3-15.6,11.5-24.5,15-67.8,25.5-118.5,94.3-127.8,165.6-1.3,6.1-3,11.9-5.4,17.3-3.9,8.9-10.2,16.6-16.9,23.8-88.5,91.9-83,232.7,8.1,320.7,8.8,10.1,15.1,21.5,19.4,34.3,18.1,71.6,68.5,123.7,138.4,147.3,6.4,2.7,12.3,5.8,17.5,9.8,9.3,7,15.9,17.6,21.7,28,35.6,67.3,114.3,98.7,184.8,68.4,7.3-2.7,14.1-5.2,21.8-6.9,18.8-3.7,42.2-3.8,60.8.4,7.4,1.8,13.6,4.4,20.5,7.2,64.9,28,150-3.6,182.3-66.5,3.7-7,7.2-14.5,11.8-20.8,11.9-17.6,34.1-21,52.1-29.9,47.6-22.1,84.9-60.9,103.1-109.4,4.9-12.4,8-26,13.5-38,4.6-10.4,11.2-19.5,19-27.9,84.8-79.9,91.2-221.6,13.5-308.3h-.1ZM543.1,696.1c-.4-102.1,0-208.7-.2-311.2,0-7.2,0-13.7,0-20.7.2-8.9-.3-19,4.6-18.8,5.8,1.4,13.2,13.5,18,21.2,43.8,74,134.2,222.8,180.8,299.7,2.1,3.9,5.9,8.9.2,11.1-4.4,1.7-9.4,1.9-16.2,2.3-21.5.7-43.9,0-65.6.4-40.4.3-66.8,3.4-101.1,25.6-11.9,6.7-19.9,4.9-20.5-9.5h0ZM441.9,901c-12.6,2.2-26.5,1.9-38.8.7-4.3-.5-8.6-1.2-12.6-2.4-22.7-6.6-35.1-28.6-37.5-51.5-1-7.9-1.2-15.6-1.2-23.4-.2-9.5.8-22.9-5.6-29.5-4.9-5.2-14.3-4.2-21.5-3.1-31,6.5-63.9,1.9-90.2-15.8-8-5.3-17.1-12.6-22.1-20.4-6.4-10.6,9.1-9.1,19-9.4,19.1,0,41.1,0,60.7,0,20.6,0,39.2,0,56.5,0,20.3.2,44.3,0,61.1,10.7,20.7,12.8,42.3,42.1,53.1,63.7,14.1,28.1,19.8,73.1-20.6,80.3h-.2ZM468.2,708.1c-7.6,3.6-17.1-4.1-24-7.6-18.3-11.1-37.5-16.6-58.2-18.6-22.7-2.3-47.3-1.7-70.6-1.8-5.3,0-10.6,0-15.9,0-11.7-.6-26.8,2-32.1-7.4-2.5-5.4,1.4-12.9,4.8-18.1,33-52.9,133-213.6,186.2-298.9,2.8-4.3,9.1-12.2,13.8-8.7,2.3,3.3,1.6,8.4,1.7,12.6,0,14.1,0,33,0,59.3,0,76.1,0,159.3,0,230.6,0,12.3,0,24.6,0,36.9-.3,7.1.3,17.4-5.5,21.7h0ZM471.5,188.1c-.1,5.6-.8,9-3.4,13.2-60.8,97.5-233.1,379.2-277.2,447.5-1.4,1-3.3,1.1-6.1.5-4.7-1.3-11.4-4.2-16.6-7.2-22-11.2-41.4-29-51.7-50.3-21.6-41.4-10.3-96.9,23.8-128.3,10.8-10.9,26-16.7,37.5-26.4,10.1-8.7,12.2-20.5,11.9-33.9-1.3-28.9.5-59.1,15.7-84.6,21-37.9,64.2-54.3,106.4-46.8,6.9,1.1,13.9,2.9,19.8,3.4,12.7,1.5,19.4-4.7,20.1-17.1.6-8.7.2-19.5.2-28.9.7-29.3-2.7-59.6,5.5-87.4,7.2-24,30.7-34.1,54.4-30.2,37.3,5.8,60,40.2,59.6,76.4h0ZM803.1,753.1c.7,6.2-6.4,12.6-11.2,16.6-24.9,20.5-60.3,29-93,22.5-5.8-1-12.5-2.3-17.9-2-13.4.4-15.2,12.3-15.4,24.3.4,32.9-2.9,73.2-39.5,84.9-13.5,4-26.9,3.7-41.5,3-48.7-2.2-51.7-42.6-34.4-79.4,4.8-10.2,10.9-19.8,17.5-29,13.1-18.5,28.1-35.7,49.9-42.4,14.8-4.8,30.2-5.3,45.4-5.3,30.1,0,75.6,0,103.9,0,5.1,0,10,0,15,0,7.9.2,19.3-.9,21.2,6.8h0ZM849.3,643.2c-27.1,11.9-41-19.6-53.4-38.1-16.2-24.9-30.8-48.8-46.3-74.3-57.7-94.3-172.4-280.7-200.3-326.8-1.6-3.1-3.1-7-4.1-12.7-8.2-47.8,34.8-93.2,83.3-81,13.3,3.7,24.4,13.8,30.1,26.3,6.9,15.2,6.4,31.7,7,50.3.6,22.3-.4,46.5-.2,68.4,1.3,35.6,30.9,8.1,70.3,14.3,35.3,4.3,66.8,29,80.6,61.8,7.6,17.9,10.6,37.5,11.2,56.9.5,13.1-1.7,28.2,4.3,39.6,6,12.2,20.4,18.5,31.3,26.5,67.8,48.3,62,151.9-13.7,188.6h-.2Z"/>
</svg>